# xmcd
#
# Track frame offsets:
#	150
#	18570
#	43022
#	60610
#	72495
#	89855
#	104752
#	122802
#	140190
#	162745
#	175427
#	188152
#	203887
#	223657
#	243097
#	263415
#	283150
#	292945
#
# Disc length: 4441 seconds
#
# Revision: 18
# Processed by: cddbd v1.5.2PL0 Copyright (c) Steve Scherf et al.
# Submitted via: audiograbber 1.83.01
#
DISCID=28115712
DTITLE=Various Artist - Mojo Club Presents Dancefloor Jazz Volume Six - Summer In The 
DTITLE=City
DYEAR=1997
DGENRE=Jazz-Funk
TTITLE0=Quincy Jones - Summer In The City
TTITLE1=Dieter Reith - My Kind Of Sunshine
TTITLE2=Hearts Of Stone - Thank You Fallettinme Be Mice Elf Again
TTITLE3=Dave Pike - Sittin' On My Knees
TTITLE4=Jorge Ben - Ponta de Lança Africano
TTITLE5=James Last - Bolero '75
TTITLE6=Peter Herbolzheimer - Feedback Brother
TTITLE7=David Shire - Salsation
TTITLE8=Paul Mauriat - Etude In The Form Of Rhythm and Blues
TTITLE9=Pierre Henry and Michel Colombier - Psyche Rock
TTITLE10=The Marvelettes - Here I Am Baby
TTITLE11=George Shearing - Aquarius
TTITLE12=Chakachas - Jungle Fever
TTITLE13=Wolfgang Dauner - Just Bring It Out
TTITLE14=The Equals - Funky Like A Train
TTITLE15=Seawind - Free
TTITLE16=Bossa Rio - Saiupa
TTITLE17=Baden Powell - Blues A Volonte
EXTD=
EXTT0=
EXTT1=
EXTT2=
EXTT3=
EXTT4=
EXTT5=
EXTT6=
EXTT7=
EXTT8=
EXTT9=
EXTT10=
EXTT11=
EXTT12=
EXTT13=
EXTT14=
EXTT15=
EXTT16=
EXTT17=
PLAYORDER=
